<?xml version="1.0" encoding="UTF-8" standalone="no"?>
<svg
   width="850.79688"
   height="850.79688"
   viewBox="0 0 850.79688 850.79688"
   fill="none"
   version="1.1"
   id="svg3"
   sodipodi:docname="webblogosolidblack.svg"
   xmlns:inkscape="http://www.inkscape.org/namespaces/inkscape"
   xmlns:sodipodi="http://sodipodi.sourceforge.net/DTD/sodipodi-0.dtd"
   xmlns="http://www.w3.org/2000/svg"
   xmlns:svg="http://www.w3.org/2000/svg">
  <defs
     id="defs3" />
  <sodipodi:namedview
     id="namedview3"
     pagecolor="#ffffff"
     bordercolor="#111111"
     borderopacity="1"
     inkscape:showpageshadow="0"
     inkscape:pageopacity="0"
     inkscape:pagecheckerboard="1"
     inkscape:deskcolor="#d1d1d1" />
  <path
     id="path3"
     style="fill:#000000;fill-opacity:1;stroke:#000000;stroke-opacity:0"
     d="M 425.39844,0.4999975 C 190.73367,0.4999975 0.4999975,190.73367 0.4999975,425.39844 c 0,234.66477 190.2336725,424.89844 424.8984425,424.89844 234.66477,0 424.89844,-190.23367 424.89844,-424.89844 0,-234.66477 -190.23367,-424.8984425 -424.89844,-424.8984425 z m 31.01172,66.0859395 c 22.21098,2.039 44.18293,6.1524 65.6289,12.27539 22.67998,6.49799 44.66389,15.21912 65.63086,26.037113 12.98699,6.66999 25.55483,14.12709 37.63282,22.33008 9.67199,6.61199 19.01515,13.69371 27.99414,21.2207 16.05598,13.40899 30.90778,28.20119 44.38476,44.20117 7.535,8.95899 14.62606,18.28061 21.24805,27.9336 8.26799,12.05098 15.79135,24.59837 22.52734,37.56836 10.87599,20.93598 19.65776,42.89271 26.21875,65.55468 l -48.74609,0.14063 -19.7168,0.0566 c -8.34099,-23.15898 -19.56526,-45.17527 -33.40625,-65.53125 -3.96399,-5.82299 -8.13677,-11.5024 -12.50976,-17.02539 -14.23599,-17.98498 -30.53171,-34.23975 -48.55469,-48.42774 -5.53999,-4.33299 -11.23527,-8.46467 -17.07227,-12.38867 -20.39798,-13.77198 -42.44788,-24.92251 -65.63086,-33.1875 v 45.81641 65.63476 65.63086 65.63282 l 65.63086,-0.18946 65.62696,-0.19531 61.42773,-0.17773 4.20508,-0.0156 61.26367,-0.17773 c 1.119,11.34899 1.69652,22.74735 1.72852,34.15234 -0.364,10.52499 -1.19147,21.02943 -2.48047,31.48242 -1.882,22.20598 -5.83093,44.19013 -11.79492,65.66211 -6.115,22.65998 -14.44144,44.66819 -24.85743,65.70117 -7.11699,13.47299 -15.08738,26.48242 -23.85937,38.94141 -6.49099,9.26299 -13.41787,18.21427 -20.75586,26.82227 -13.59399,16.31898 -28.61297,31.40056 -44.87695,45.06054 -8.46199,7.336 -17.26596,14.27317 -26.37696,20.78516 -12.55398,8.85099 -25.66601,16.88569 -39.25,24.05469 -20.99097,10.58399 -42.97688,19.07938 -65.63086,25.35937 -21.45597,6.043 -43.43174,10.07316 -65.63671,12.03516 v -60.95313 -4.52539 -61.10937 l 0.004,-65.63086 v -65.63086 l 65.63281,-0.18945 v 65.62695 65.6289 46.95508 c 23.24098,-8.63799 45.29588,-20.19192 65.63086,-34.3789 6.263,-4.039 12.3716,-8.31632 18.3086,-12.82032 17.54898,-14.04698 33.42737,-30.06725 47.31836,-47.74023 4.44099,-5.86199 8.66239,-11.88741 12.65039,-18.06641 14.02698,-20.38898 25.41744,-42.47758 33.89844,-65.72656 7.20499,-21.27698 11.94314,-43.3139 14.11914,-65.67187 l -60.66797,0.17773 -65.62696,0.19141 -65.63086,0.18945 -65.63281,0.19141 v -65.63086 -65.63477 -65.63086 l 0.004,-65.62891 v -61.28906 -4.3457 z m -65.63086,0.93945 v 60.380863 5.08985 60.54296 l -0.004,65.63086 v 65.63477 65.63477 65.63086 65.6289 65.63086 l -0.004,65.63086 v 60.94922 4.68359 60.78907 c -22.20098,-1.944 -44.17388,-5.95357 -65.63086,-11.97657 -22.64998,-6.24199 -44.63388,-14.69724 -65.63086,-25.24023 -13.01599,-6.91199 -25.59412,-14.62009 -37.66211,-23.08008 -9.67399,-6.76099 -19.00681,-13.99574 -27.9668,-21.67773 -15.84798,-13.28999 -30.51586,-27.92616 -43.83984,-43.74415 -7.71999,-8.93199 -14.99393,-18.24163 -21.79492,-27.89062 -8.447,-12.05099 -16.14389,-24.61043 -23.04688,-37.60742 C 94.564038,567.20304 86.014538,545.24535 79.677548,522.60938 l 48.568362,-0.14063 19.1875,-0.0566 c 8.67199,23.21098 20.25004,45.23027 34.45703,65.53125 3.79199,5.847 7.79224,11.5581 11.99023,17.1211 14.22599,17.94898 30.50393,34.16909 48.50391,48.33007 5.56399,4.2 11.276,8.20215 17.125,11.99414 20.34298,14.13699 42.39688,25.64039 65.63086,34.23438 v -46.4668 -65.63476 -65.62696 -65.63281 -65.63086 -65.63476 -65.62891 -65.63086 -46.45508 c -23.23298,8.59499 -45.28888,20.1003 -65.63086,34.23828 v -53.22855 -23.55078 c 20.99598,-10.542992 42.98188,-18.997292 65.63086,-25.238282 21.45898,-6.024 43.43569,-10.03357 65.63867,-11.976571 z" />
</svg>
