<svg width="1080" height="1080" viewBox="0 0 1080 1080" fill="none" xmlns="http://www.w3.org/2000/svg">
<path d="M571.011 181.188V242.319V246.665V307.953L571.007 373.583V439.213V504.848V570.478L636.641 570.288L702.272 570.097L767.898 569.907L828.566 569.729C826.39 592.087 821.652 614.124 814.447 635.401C805.966 658.65 794.575 680.737 780.548 701.126C776.56 707.305 772.339 713.332 767.898 719.194C754.007 736.867 738.129 752.887 720.58 766.934C714.643 771.438 708.535 775.715 702.272 779.754C681.937 793.941 659.882 805.494 636.641 814.132V767.178V701.548V635.922L571.007 636.112V701.742L571.003 767.373V828.483V833.007V893.96C593.208 891.998 615.185 887.969 636.641 881.926C659.295 875.646 681.281 867.151 702.272 856.567C715.856 849.398 728.968 841.362 741.522 832.511C750.633 825.999 759.436 819.062 767.898 811.726C784.162 798.066 799.182 782.985 812.776 766.666C820.114 758.058 827.041 749.106 833.532 739.843C842.304 727.384 850.273 714.376 857.39 700.903C867.806 679.87 876.133 657.862 882.248 635.202C888.212 613.73 892.161 591.745 894.043 569.539C895.332 559.086 896.16 548.581 896.524 538.056C896.492 526.651 895.914 515.254 894.795 503.905L833.532 504.082L829.327 504.098L767.898 504.276L702.272 504.47L636.641 504.661V439.027V373.396V307.762V261.945C659.824 270.21 681.874 281.36 702.272 295.132C708.109 299.056 713.803 303.189 719.343 307.522C737.366 321.71 753.662 337.964 767.898 355.949C772.271 361.472 776.444 367.151 780.408 372.974C794.249 393.33 805.473 415.347 813.814 438.506L833.532 438.449L882.277 438.309C875.716 415.647 866.934 393.689 856.058 372.753C849.322 359.783 841.8 347.237 833.532 335.186C826.91 325.533 819.819 316.21 812.284 307.251C798.807 291.251 783.954 276.46 767.898 263.051C758.919 255.524 749.577 248.443 739.905 241.831C727.827 233.628 715.259 226.17 702.272 219.5C681.305 208.682 659.321 199.961 636.641 193.463C615.195 187.34 593.222 183.227 571.011 181.188Z" fill="white" stroke="white" stroke-width="2.11737"/>
<path d="M505.381 182.126C483.178 184.069 461.201 188.079 439.742 194.103C417.093 200.344 395.108 208.799 374.112 219.342V242.893V296.121C394.454 281.983 416.509 270.478 439.742 261.883V308.337V373.968V439.598V505.232V570.863V636.497V702.123V767.758V814.224C416.508 805.63 394.455 794.127 374.112 779.99C368.263 776.198 362.551 772.197 356.987 767.997C338.987 753.836 322.708 737.615 308.482 719.666C304.284 714.103 300.285 708.392 296.493 702.545C282.286 682.244 270.708 660.225 262.036 637.014L242.848 637.07L194.28 637.211C200.617 659.847 209.165 681.804 219.8 702.767C226.703 715.764 234.401 728.324 242.848 740.375C249.649 750.024 256.922 759.333 264.642 768.265C277.966 784.083 292.634 798.72 308.482 812.01C317.442 819.692 326.776 826.927 336.45 833.688C348.518 842.148 361.096 849.856 374.112 856.768C395.109 867.311 417.092 875.765 439.742 882.007C461.199 888.03 483.172 892.04 505.373 893.984V833.196V828.511V767.562L505.377 701.931V636.301V570.671V505.041V439.406V373.772L505.381 308.141V247.598V242.507V182.126Z" fill="white" stroke="white" stroke-width="2.11737"/>
<path d="M540 964.898C774.665 964.898 964.898 774.665 964.898 540C964.898 305.335 774.665 115.102 540 115.102C305.335 115.102 115.102 305.335 115.102 540C115.102 774.665 305.335 964.898 540 964.898Z" stroke="white" stroke-width="29.3605"/>
</svg>
