<svg xmlns="http://www.w3.org/2000/svg" version="1.1" xmlns:xlink="http://www.w3.org/1999/xlink" xmlns:svgjs="http://svgjs.dev/svgjs" width="879.15729" height="879.15729"><svg width="879.15729" height="879.15729" viewBox="0 0 232.61036 232.61037" version="1.1" id="SvgjsSvg1095" inkscape:version="1.3.2 (091e20e, 2023-11-25)" xml:space="preserve" sodipodi:docname="webblogofavicon.svg" xmlns:inkscape="http://www.inkscape.org/namespaces/inkscape" xmlns:sodipodi="http://sodipodi.sourceforge.net/DTD/sodipodi-0.dtd" xmlns="http://www.w3.org/2000/svg" xmlns:svg="http://www.w3.org/2000/svg"><sodipodi:namedview id="SvgjsSodipodi:namedview1094" pagecolor="#ffffff" bordercolor="#cccccc" borderopacity="1" inkscape:showpageshadow="0" inkscape:pageopacity="1" inkscape:pagecheckerboard="0" inkscape:deskcolor="#d1d1d1" inkscape:document-units="px"></sodipodi:namedview><defs id="SvgjsDefs1093"></defs><g inkscape:label="Layer 1" inkscape:groupmode="layer" id="SvgjsG1092" transform="translate(-133.12066,306.40157)"><g id="SvgjsG1091" transform="matrix(2.1173719,0,0,2.1173719,-57.038414,-496.16447)" style="fill:#ffffff"><circle style="opacity:1;fill:#ffffff;fill-opacity:0.995902;stroke:#000000;stroke-width:3.66884;stroke-linecap:butt;stroke-linejoin:miter;stroke-dasharray:none;stroke-opacity:1;paint-order:fill markers stroke" id="SvgjsCircle1090" cx="144.73804" cy="144.55093" r="53.094608" inkscape:label="path95" inkscape:export-filename="path95.png" inkscape:export-xdpi="96" inkscape:export-ydpi="96"></circle><g id="SvgjsG1089" style="fill:#ffffff"><path d="m 148.61315,99.714325 v 7.638815 0.54311 7.65845 l -5.2e-4,8.20105 v 8.20105 8.20157 8.20105 l 8.20157,-0.0238 8.20105,-0.0238 8.20053,-0.0238 7.58093,-0.0222 c -0.27187,2.79381 -0.86388,5.54753 -1.76423,8.20622 -1.05976,2.90524 -2.48319,5.6651 -4.23592,8.21294 -0.4984,0.77208 -1.02576,1.52529 -1.58078,2.25774 -1.73572,2.20839 -3.71992,4.21027 -5.91282,5.96553 -0.74189,0.56282 -1.50512,1.09727 -2.28771,1.60197 -2.54095,1.77272 -5.29697,3.21637 -8.20105,4.29586 v -5.86735 -8.20104 -8.20054 l -8.20157,0.0238 v 8.20105 l -5.2e-4,8.20105 v 7.63623 0.56534 7.61659 c 2.77465,-0.24514 5.52095,-0.74865 8.20209,-1.50379 2.83078,-0.78475 5.57806,-1.84627 8.20105,-3.16879 1.69748,-0.89584 3.33592,-1.90004 4.90461,-3.00602 1.13853,-0.81374 2.23852,-1.68056 3.29592,-2.59726 2.03231,-1.70695 3.90921,-3.59146 5.60793,-5.63066 0.91688,-1.07564 1.7825,-2.19427 2.59364,-3.35174 1.09608,-1.55686 2.09194,-3.18227 2.98121,-4.86585 1.30162,-2.62819 2.34214,-5.37828 3.10627,-8.20983 0.74521,-2.68319 1.23866,-5.43039 1.47381,-8.20519 0.16109,-1.30613 0.26455,-2.61889 0.31006,-3.93413 -0.004,-1.42504 -0.0762,-2.84926 -0.21601,-4.26743 l -7.65534,0.0222 -0.52555,0.002 -7.67602,0.0222 -8.20053,0.0243 -8.20105,0.0238 v -8.20157 -8.20105 -8.20157 -5.72523 c 2.89679,1.03278 5.65222,2.42612 8.20105,4.14704 0.72939,0.49032 1.44094,1.00675 2.1332,1.54822 2.25208,1.77292 4.28847,3.80393 6.06733,6.05131 0.54645,0.69016 1.06787,1.39981 1.56321,2.12752 1.72956,2.54356 3.13207,5.29477 4.17442,8.18865 l 2.46394,-0.007 6.0911,-0.0176 c -0.81989,-2.83172 -1.91732,-5.57563 -3.27629,-8.19174 -0.84171,-1.62068 -1.78174,-3.18837 -2.81481,-4.69429 -0.82752,-1.20622 -1.71364,-2.37122 -2.65514,-3.49074 -1.6841,-1.99934 -3.54003,-3.8475 -5.54643,-5.52318 -1.12195,-0.94045 -2.28938,-1.82538 -3.49798,-2.65152 -1.50921,-1.02505 -3.0797,-1.95699 -4.70255,-2.79053 -2.61992,-1.3517 -5.36703,-2.44154 -8.20105,-3.25355 -2.67998,-0.76506 -5.42569,-1.278391 -8.20105,-1.533235 z" style="opacity:1;fill:#000000;fill-opacity:1;stroke:#000000;stroke-width:0.264583;stroke-linejoin:miter;stroke-dasharray:none;stroke-opacity:0;paint-order:fill markers stroke" id="SvgjsPath1088"></path><path d="m 140.4121,99.831631 c -2.77448,0.242779 -5.52065,0.743839 -8.20208,1.496549 -2.83029,0.77995 -5.57745,1.8364 -8.20105,3.15381 v 2.94298 6.65127 c 2.54191,-1.76663 5.2978,-3.20431 8.20105,-4.27829 v 5.80481 8.20105 8.20105 8.20157 8.20105 8.20156 8.20054 8.20156 5.80637 c -2.90332,-1.07386 -5.65903,-2.51128 -8.20105,-4.27778 -0.73088,-0.47394 -1.44466,-0.97381 -2.13993,-1.49862 -2.24921,-1.76958 -4.28348,-3.79657 -6.06112,-6.03942 -0.52462,-0.6951 -1.02432,-1.40871 -1.4981,-2.1394 -1.77534,-2.53672 -3.2221,-5.28821 -4.30568,-8.18865 l -2.39779,0.007 -6.06888,0.0176 c 0.79185,2.82852 1.85998,5.57232 3.18895,8.19175 0.8626,1.6241 1.82441,3.19358 2.87993,4.69946 0.84984,1.2058 1.75875,2.36893 2.72335,3.48505 1.66495,1.97671 3.49789,3.80568 5.47822,5.46634 1.11964,0.95992 2.28605,1.86401 3.49487,2.70888 1.50793,1.05716 3.07968,2.02036 4.70618,2.88406 2.62367,1.31744 5.37068,2.37383 8.20105,3.15381 2.68116,0.75266 5.42685,1.2537 8.20105,1.49655 v -7.59592 -0.58549 -7.61608 l 5.1e-4,-8.20105 v -8.20105 -8.20104 -8.20105 -8.20157 -8.20157 l 5.2e-4,-8.20105 v -7.56543 -0.63613 z" style="opacity:1;fill:#000000;fill-opacity:1;stroke:#000000;stroke-width:0.264583;stroke-linejoin:miter;stroke-dasharray:none;stroke-opacity:0;paint-order:fill markers stroke" id="SvgjsPath1087"></path></g></g></g></svg><style>@media (prefers-color-scheme: light) { :root { filter: none; } }
@media (prefers-color-scheme: dark) { :root { filter: none; } }
</style></svg>